<?xml version="1.0" standalone="no"?>
<!DOCTYPE svg PUBLIC "-//W3C//DTD SVG 20010904//EN"
 "http://www.w3.org/TR/2001/REC-SVG-20010904/DTD/svg10.dtd">
<svg version="1.0" xmlns="http://www.w3.org/2000/svg"
 width="512.000000pt" height="512.000000pt" viewBox="0 0 512.000000 512.000000"
 preserveAspectRatio="xMidYMid meet">

<g transform="translate(0.000000,512.000000) scale(0.100000,-0.100000)"
fill="#000000" stroke="none">
<path d="M2175 4922 c-16 -9 -71 -19 -121 -22 -91 -7 -186 -26 -304 -61 -36
-11 -72 -19 -80 -19 -8 -1 -24 -7 -34 -15 -11 -8 -30 -15 -43 -15 -13 0 -40
-9 -60 -20 -21 -11 -42 -20 -48 -20 -6 0 -41 -16 -78 -35 -37 -19 -71 -35 -76
-35 -13 0 -195 -105 -253 -147 -26 -18 -51 -33 -54 -33 -4 0 -23 -14 -43 -30
-20 -17 -76 -64 -126 -104 -114 -94 -277 -264 -355 -372 -44 -61 -137 -198
-166 -244 -60 -97 -184 -369 -184 -404 0 -8 -6 -30 -14 -48 -39 -88 -84 -287
-95 -411 -5 -60 -14 -105 -24 -121 -25 -38 -25 -375 0 -412 10 -17 19 -59 23
-118 7 -93 26 -188 61 -306 11 -36 19 -72 19 -80 1 -8 7 -24 15 -34 8 -11 15
-30 15 -43 0 -13 9 -40 20 -60 11 -21 20 -42 20 -48 0 -6 16 -41 35 -78 19
-37 35 -71 35 -76 0 -13 105 -195 147 -253 18 -26 33 -51 33 -54 0 -4 14 -23
30 -43 17 -20 64 -76 104 -126 97 -118 269 -282 375 -358 69 -49 199 -136 241
-163 97 -60 369 -184 404 -184 8 0 30 -6 48 -14 90 -39 286 -84 416 -95 64 -6
112 -15 127 -25 21 -14 72 -16 375 -16 305 0 354 2 375 16 16 10 61 19 123 24
100 8 193 26 312 61 36 11 72 19 80 19 8 1 24 7 34 15 11 8 30 15 43 15 13 0
40 9 60 20 21 11 42 20 48 20 6 0 41 16 78 35 37 19 71 35 76 35 13 0 195 105
253 147 26 18 51 33 54 33 4 0 23 14 43 30 20 17 77 64 126 104 118 97 282
269 358 375 49 69 136 199 163 241 60 97 184 369 184 404 0 8 6 30 14 48 39
90 84 286 95 416 6 70 14 109 25 121 24 26 24 376 0 402 -11 12 -18 49 -24
117 -8 100 -26 193 -61 312 -11 36 -19 72 -19 80 -1 8 -7 24 -15 34 -8 11 -15
30 -15 43 0 13 -9 40 -20 60 -11 21 -20 42 -20 48 0 6 -16 41 -35 78 -19 37
-35 71 -35 76 0 13 -105 195 -147 253 -18 26 -33 51 -33 54 0 4 -14 23 -30 43
-17 20 -64 77 -104 126 -94 114 -264 277 -372 355 -61 44 -198 137 -244 166
-97 60 -369 184 -404 184 -8 0 -30 6 -48 14 -88 38 -287 84 -409 95 -53 4
-110 15 -129 24 -29 15 -75 17 -384 16 -299 -1 -355 -3 -381 -17z"/>
</g>
</svg>
